<svg width="41" height="41" viewBox="0 0 41 41" fill="none" xmlns="http://www.w3.org/2000/svg">
<path d="M13.5633 4.19216C13.0829 4.6727 12.813 5.32436 12.813 6.00385C12.813 6.68333 13.0829 7.33499 13.5633 7.81553L26.2477 20.4999L13.5633 33.1843C13.0965 33.6676 12.8382 34.3149 12.8441 34.9867C12.8499 35.6586 13.1194 36.3013 13.5945 36.7764C14.0696 37.2516 14.7123 37.521 15.3842 37.5269C16.0561 37.5327 16.7034 37.2744 17.1867 36.8077L31.6828 22.3116C32.1631 21.8311 32.433 21.1794 32.433 20.4999C32.433 19.8204 32.1631 19.1688 31.6828 18.6882L17.1867 4.19216C16.7061 3.71177 16.0545 3.44189 15.375 3.44189C14.6955 3.44189 14.0439 3.71177 13.5633 4.19216Z" fill="#D1D1D1"/>
</svg>
